<?xml version="1.0" encoding="utf-8"?>
<svg viewBox="0 0 500 500" xmlns="http://www.w3.org/2000/svg">
  <path style="fill: rgb(15, 71, 197); stroke: rgb(248, 248, 248);" d="M 88.943 230.769 C 115.076 230.766 133.014 174.118 119.95 196.752 C 115.597 204.294 108.512 209.875 100.16 212.34 C 80.827 218.047 74.922 242.543 89.531 256.432 C 104.14 270.322 128.306 263.188 133.03 243.591 C 135.007 235.391 132.913 226.741 127.404 220.353 C 117.974 209.417 100.242 212.791 95.487 226.425 C 90.731 240.059 102.518 253.729 116.704 251.03 C 122.987 249.835 128.229 245.52 130.609 239.583 C 138.539 219.805 164.906 216.028 178.07 232.785 C 191.233 249.542 181.32 274.265 160.226 277.286 C 150.012 278.749 139.831 274.409 133.814 266.026 C 126.809 256.265 132.996 242.582 144.952 241.395 C 156.908 240.209 165.664 252.409 160.714 263.356 C 160.003 264.929 159.036 266.372 157.853 267.628"/>
</svg>