<?xml version="1.0" encoding="utf-8"?>
<svg viewBox="0 0 500 500" xmlns="http://www.w3.org/2000/svg">
  <path d="M 59.263 129.391 L 62.653 129.391 L 69.163 145.641 L 75.673 129.391 L 79.073 129.391 L 79.073 149.301 L 76.453 149.301 L 76.453 141.551 L 76.693 133.181 L 70.163 149.301 L 68.153 149.301 L 61.633 133.221 L 61.893 141.551 L 61.893 149.301 L 59.263 149.301 L 59.263 129.391 ZM 89.448 149.571 C 87.442 149.571 85.812 148.914 84.558 147.601 C 83.298 146.281 82.668 144.518 82.668 142.311 L 82.668 141.851 C 82.668 140.384 82.948 139.074 83.508 137.921 C 84.068 136.768 84.852 135.864 85.858 135.211 C 86.865 134.558 87.958 134.231 89.138 134.231 C 91.058 134.231 92.552 134.864 93.618 136.131 C 94.685 137.398 95.218 139.214 95.218 141.581 L 95.218 142.631 L 85.198 142.631 C 85.238 144.091 85.665 145.268 86.478 146.161 C 87.292 147.061 88.328 147.511 89.588 147.511 C 90.482 147.511 91.238 147.328 91.858 146.961 C 92.478 146.601 93.022 146.118 93.488 145.511 L 95.028 146.721 C 93.788 148.621 91.928 149.571 89.448 149.571 Z M 89.138 136.311 C 88.118 136.311 87.262 136.684 86.568 137.431 C 85.875 138.171 85.445 139.211 85.278 140.551 L 92.688 140.551 L 92.688 140.361 C 92.615 139.074 92.268 138.078 91.648 137.371 C 91.028 136.664 90.192 136.311 89.138 136.311 ZM 97.472 141.941 L 97.472 141.771 C 97.472 140.318 97.759 139.014 98.332 137.861 C 98.899 136.701 99.692 135.808 100.712 135.181 C 101.726 134.548 102.886 134.231 104.192 134.231 C 106.206 134.231 107.832 134.931 109.072 136.331 C 110.319 137.724 110.942 139.578 110.942 141.891 L 110.942 142.071 C 110.942 143.511 110.666 144.801 110.112 145.941 C 109.566 147.088 108.779 147.981 107.752 148.621 C 106.726 149.254 105.546 149.571 104.212 149.571 C 102.212 149.571 100.589 148.874 99.342 147.481 C 98.096 146.088 97.472 144.241 97.472 141.941 Z M 100.022 142.071 C 100.022 143.711 100.402 145.028 101.162 146.021 C 101.922 147.014 102.939 147.511 104.212 147.511 C 105.499 147.511 106.522 147.008 107.282 146.001 C 108.036 144.994 108.412 143.584 108.412 141.771 C 108.412 140.144 108.029 138.828 107.262 137.821 C 106.489 136.814 105.466 136.311 104.192 136.311 C 102.939 136.311 101.932 136.808 101.172 137.801 C 100.406 138.794 100.022 140.218 100.022 142.071 ZM 123.701 134.511 L 127.211 145.811 L 130.061 134.511 L 132.581 134.511 L 128.281 149.301 L 126.231 149.301 L 122.631 138.091 L 119.131 149.301 L 117.081 149.301 L 112.791 134.511 L 115.301 134.511 L 118.221 145.581 L 121.661 134.511 L 123.701 134.511 Z" transform="matrix(1, 0, 0, 1, 0, 0)" style="fill: rgb(51, 51, 51); white-space: pre;"/>
</svg>